<svg xmlns="http://www.w3.org/2000/svg" viewBox="0 0 176.01 29.86"><defs><style>.cls-1{fill:#0162d0;}</style></defs><title>With side icon_1</title><g id="Layer_2" data-name="Layer 2"><g id="Layer_1-2" data-name="Layer 1"><path class="cls-1" d="M39.44,2.06h4v27.8h-4Z"/><path class="cls-1" d="M54.65,8.19h1.54q4,0,4,4V29.86h-4V12.72A1.48,1.48,0,0,0,56,11.67a1.65,1.65,0,0,0-1-.24H53.38a1.46,1.46,0,0,0-1.12.36A1.71,1.71,0,0,0,51.93,13V29.86H48V8.19h4V9.92A2.54,2.54,0,0,1,54.65,8.19Z"/><path class="cls-1" d="M71.27,11.43h-3V25.15a1.59,1.59,0,0,0,.24,1.05,1.56,1.56,0,0,0,1,.24h1.67v3.42H68.45q-4.12,0-4.13-3.91V11.43h-2V8.19h2V4.5h4V8.19h3Z"/><path class="cls-1" d="M77.64,8.19H82q4.13,0,4.13,4v8.13H77.42v5.15a1.51,1.51,0,0,0,.26,1,1.52,1.52,0,0,0,1.06.27h2a1.52,1.52,0,0,0,1.06-.27,1.59,1.59,0,0,0,.26-1.07V23.6H86V26c0,2.61-1.37,3.91-4.09,3.91H77.64q-4.1,0-4.09-3.91V12.14Q73.55,8.2,77.64,8.19Zm-.22,9.15h4.75V12.63a1.58,1.58,0,0,0-.24-1,1.44,1.44,0,0,0-1-.27H78.74a1.52,1.52,0,0,0-1.06.27,1.51,1.51,0,0,0-.26,1Z"/><path class="cls-1" d="M96.89,8.14h.88v3.47H96.19q-2.77,0-2.77,3.28v15h-4V8.19h4v2.66a4,4,0,0,1,1.25-1.93A3.27,3.27,0,0,1,96.89,8.14Z"/><path class="cls-1" d="M106.61,8.19h1.53q4,0,4,4V29.86h-4V12.72a1.47,1.47,0,0,0-.27-1.05,1.61,1.61,0,0,0-1-.24h-1.54a1.46,1.46,0,0,0-1.12.36,1.71,1.71,0,0,0-.33,1.19V29.86h-4V8.19h4V9.92A2.54,2.54,0,0,1,106.61,8.19Z"/><path class="cls-1" d="M122.65,8.14h1.54c2.66,0,4,1.32,4,4V26c0,2.61-1.34,3.91-4,3.91h-1.54a2.54,2.54,0,0,1-2.73-1.73v1.73h-4V.15h4V9.88A2.54,2.54,0,0,1,122.65,8.14Zm1.58,17.19V12.67a1.51,1.51,0,0,0-.26-1,1.53,1.53,0,0,0-1.06-.26h-1.54a1.48,1.48,0,0,0-1.12.35,1.76,1.76,0,0,0-.33,1.2V25.06a1.72,1.72,0,0,0,.33,1.2,1.48,1.48,0,0,0,1.12.36h1.54a1.59,1.59,0,0,0,1.06-.25A1.48,1.48,0,0,0,124.23,25.33Z"/><path class="cls-1" d="M135.62,8.19h4.7c2.72,0,4.09,1.32,4.09,4V26c0,2.61-1.37,3.91-4.09,3.91h-4.7q-4.05,0-4.05-3.91V12.14Q131.57,8.2,135.62,8.19Zm4.87,17.18V12.67a1.53,1.53,0,0,0-.26-1.06,1.51,1.51,0,0,0-1-.27h-2.42a1.4,1.4,0,0,0-1,.27,1.59,1.59,0,0,0-.25,1.06v12.7a1.6,1.6,0,0,0,.25,1.07,1.4,1.4,0,0,0,1,.27h2.42a1.51,1.51,0,0,0,1-.27A1.54,1.54,0,0,0,140.49,25.37Z"/><path class="cls-1" d="M155.61,18.76,161,29.86H156.8l-3.21-7.5-3.12,7.5h-4.13l5.27-11.06-5-10.61h4.22l2.77,7.1,2.72-7.1h4.13Z"/><path class="cls-1" d="M170.65,18.76,176,29.86h-4.18l-3.2-7.5-3.13,7.5h-4.13l5.28-11.06-5-10.61h4.22l2.77,7.1,2.72-7.1h4.14Z"/><ellipse class="cls-1" cx="5.37" cy="5.67" rx="3.43" ry="3.26"/><ellipse class="cls-1" cx="16.56" cy="4.47" rx="4.7" ry="4.47"/><ellipse class="cls-1" cx="27.01" cy="5.67" rx="3.43" ry="3.26"/><path class="cls-1" d="M33.08,17.05v6.83c0,4-2,5.94-6,5.94H6q-6,0-6-5.94V17.05q0-5.86,6-5.87H27C31.06,11.18,33.08,13.14,33.08,17.05ZM6.85,24.14H26.23a2.51,2.51,0,0,0,1.63-.38,2.16,2.16,0,0,0,.4-1.54V18.71a2,2,0,0,0-.4-1.5,2.68,2.68,0,0,0-1.63-.35H6.85a2.66,2.66,0,0,0-1.63.35,2,2,0,0,0-.41,1.5v3.51a2.15,2.15,0,0,0,.41,1.54A2.49,2.49,0,0,0,6.85,24.14Z"/></g></g></svg>